<svg xmlns="http://www.w3.org/2000/svg" viewBox="0 0 32 32">
  <defs>
    <linearGradient id="grad" x1="0%" y1="0%" x2="100%" y2="100%">
      <stop offset="0%" style="stop-color:#3b82f6;stop-opacity:1" />
      <stop offset="100%" style="stop-color:#1d4ed8;stop-opacity:1" />
    </linearGradient>
  </defs>
  <!-- Background circle -->
  <circle cx="16" cy="16" r="15" fill="url(#grad)"/>
  <!-- Curly braces -->
  <path d="M 10 10 Q 8 10 8 12 L 8 14 Q 8 15 7 15 Q 8 15 8 16 L 8 18 Q 8 20 10 20"
        stroke="white" stroke-width="2" fill="none" stroke-linecap="round"/>
  <path d="M 22 10 Q 24 10 24 12 L 24 14 Q 24 15 25 15 Q 24 15 24 16 L 24 18 Q 24 20 22 20"
        stroke="white" stroke-width="2" fill="none" stroke-linecap="round"/>
  <!-- Dots in center -->
  <circle cx="14" cy="16" r="1.2" fill="white"/>
  <circle cx="16" cy="16" r="1.2" fill="white"/>
  <circle cx="18" cy="16" r="1.2" fill="white"/>
</svg>
